<?xml version="1.0" encoding="utf-8"?>
<!-- Generator: Adobe Illustrator 27.0.1, SVG Export Plug-In . SVG Version: 6.00 Build 0)  -->
<svg version="1.1" id="Camada_1" xmlns="http://www.w3.org/2000/svg" xmlns:xlink="http://www.w3.org/1999/xlink" x="0px" y="0px"
	 viewBox="0 0 1920 135" style="enable-background:new 0 0 1920 135;" xml:space="preserve">
<style type="text/css">
	.st0{fill:none;stroke:#FFC536;stroke-width:2;}
</style>
<path class="st0" d="M3475-1083c0,167.8-78.5,327.8-220.5,473.4c-142.1,145.6-347.6,276.8-601.8,386.9
	C2144.4-2.3,1442.2,134,666.5,134C-109.2,134-811.4-2.3-1319.7-222.7c-254.1-110.2-459.7-241.3-601.8-386.9
	c-142-145.6-220.5-305.6-220.5-473.4s78.5-327.8,220.5-473.4c142.1-145.6,347.7-276.8,601.8-386.9
	C-811.4-2163.7-109.2-2300,666.5-2300c775.7,0,1477.9,136.3,1986.2,356.7c254.1,110.2,459.7,241.3,601.8,386.9
	C3396.5-1410.8,3475-1250.8,3475-1083z"/>
</svg>
