<?xml version="1.0" encoding="utf-8"?>
<!-- Generator: Adobe Illustrator 27.0.0, SVG Export Plug-In . SVG Version: 6.00 Build 0)  -->
<svg version="1.1" id="Camada_1" xmlns="http://www.w3.org/2000/svg" xmlns:xlink="http://www.w3.org/1999/xlink" x="0px" y="0px"
	 viewBox="0 0 612 442" style="enable-background:new 0 0 612 442;" xml:space="preserve">
<style type="text/css">
	.st0{fill:#FF0000;}
	.st1{fill:#FFFFFF;}
</style>
<path class="st0" d="M598.7,74.7c-7-26.4-22.4-48.7-48.8-55.7C502.1,6.2,306,5,306,5S109.9,6.2,62.1,18.9
	c-26.4,7-41.7,29.3-48.8,55.7C0.5,122.5,0,221,0,221s0.5,98.6,13.3,146.3c7,26.4,22.4,48.7,48.8,55.7C109.9,435.8,306,437,306,437
	s196.1-1.2,243.9-13.9c26.4-7,41.8-29.3,48.8-55.7C611.5,319.6,612,221,612,221S611.5,122.5,598.7,74.7z"/>
<path class="st1" d="M405,221l-162-90v180"/>
</svg>
