<svg width="235" height="213" viewBox="0 0 235 213" fill="none" xmlns="http://www.w3.org/2000/svg">
<path d="M117.496 212.904C116.791 212.904 116.085 212.686 115.488 212.249C115.071 211.941 73.6389 181.377 40.9062 145.552C39.6423 144.173 39.7385 142.03 41.1243 140.766C42.5037 139.502 44.6465 139.598 45.9104 140.984C74.1778 171.92 109.066 198.918 117.573 205.346C124.496 200.47 148.522 183.045 172.26 159.865C188.62 143.897 201.638 128.365 210.947 113.711C222.412 95.6767 228.218 78.9896 228.218 64.1245C228.218 32.5017 202.491 6.77494 170.868 6.77494C149.395 6.77494 131.001 16.9053 120.403 34.5804C119.793 35.6005 118.69 36.2228 117.496 36.2228C116.303 36.2228 115.206 35.6005 114.59 34.5804C103.991 16.9117 85.5977 6.77494 64.1245 6.77494C32.5017 6.77494 6.77487 32.5017 6.77487 64.1245C6.77487 80.6962 13.9797 99.231 28.1839 119.216C29.2682 120.743 28.9089 122.853 27.3884 123.938C25.8615 125.022 23.7507 124.663 22.6665 123.142C7.62815 101.99 0.00634766 82.1333 0.00634766 64.1245C0.00634766 28.7678 28.7742 0 64.1309 0C86.1944 0 105.358 9.64916 117.503 26.6571C129.648 9.64916 148.818 0 170.875 0C206.231 0 234.999 28.7678 234.999 64.1245C234.999 80.3112 228.821 98.2302 216.638 117.387C207.033 132.49 193.67 148.439 176.918 164.78C148.503 192.508 119.684 212.127 119.402 212.32C118.824 212.711 118.164 212.904 117.503 212.904" fill="#FFC536"/>
<path d="M88.0485 142.966C86.7718 142.966 85.5977 142.248 85.0203 141.093L69.379 109.804L61.5134 122.917C60.9039 123.938 59.8004 124.56 58.6071 124.56H3.38747C1.5141 124.56 0 123.046 0 121.172C0 119.299 1.5141 117.785 3.38747 117.785H56.6824L66.7357 101.027C67.3708 99.9686 68.5257 99.3335 69.7703 99.3848C71.0085 99.4297 72.1184 100.148 72.6702 101.252L87.6251 131.162L114.327 61.0705C114.827 59.7553 116.085 58.8892 117.49 58.8892H117.496C118.908 58.8892 120.165 59.7681 120.659 61.0897L141.921 117.785H169.021C170.894 117.785 172.408 119.299 172.408 121.172C172.408 123.046 170.894 124.56 169.021 124.56H139.573C138.161 124.56 136.897 123.681 136.403 122.359L117.464 71.8552L91.205 140.779C90.7239 142.036 89.5498 142.889 88.2089 142.954C88.1512 142.954 88.0934 142.954 88.0421 142.954" fill="#FFC536"/>
</svg>
