<svg width="59" height="48" viewBox="0 0 59 48" fill="none" xmlns="http://www.w3.org/2000/svg">
<path d="M14.75 5.9C14.75 2.64578 17.3958 0 20.65 0H53.1C56.3542 0 59 2.64578 59 5.9V32.45C59 35.7042 56.3542 38.35 53.1 38.35H31.0487C29.9609 35.9992 28.2923 33.9711 26.2181 32.45H35.4V29.5C35.4 27.8683 36.7183 26.55 38.35 26.55H44.25C45.8817 26.55 47.2 27.8683 47.2 29.5V32.45H53.1V5.9H20.65V10.4264C18.9169 9.42156 16.898 8.85 14.75 8.85V5.9ZM14.75 29.5C9.86406 29.5 5.9 25.5359 5.9 20.65C5.9 15.7641 9.86406 11.8 14.75 11.8C19.6359 11.8 23.6 15.7641 23.6 20.65C23.6 25.5359 19.6359 29.5 14.75 29.5ZM12.2886 32.45H17.2022C23.9964 32.45 29.5 37.9536 29.5 44.7386C29.5 46.0938 28.403 47.2 27.0386 47.2H2.46141C1.09703 47.2 0 46.103 0 44.7386C0 37.9536 5.50359 32.45 12.2886 32.45Z" fill="#FFC536"/>
</svg>
