<svg width="56" height="44" viewBox="0 0 56 44" fill="none" xmlns="http://www.w3.org/2000/svg">
<path d="M41.9846 16.5H29.219V21.2031C29.219 24.5625 26.4475 27.25 23.1721 27.25C19.8127 27.25 17.1252 24.5625 17.1252 21.2031V11.041L11.6662 14.3164C9.98655 15.2402 9.06272 17.0039 9.06272 18.9355V22.8828L2.34397 26.7461C1.00022 27.502 0.580294 29.1816 1.33616 30.4414L8.05491 42.0312C8.81077 43.375 10.4064 43.7949 11.7502 43.0391L20.4006 38H31.9064C34.8459 38 37.2814 35.6484 37.2814 32.625H38.6252C40.0529 32.625 41.3127 31.4492 41.3127 29.9375V24.5625H41.9846C43.0764 24.5625 44.0002 23.7227 44.0002 22.5469V18.5156C44.0002 17.4238 43.0764 16.5 41.9846 16.5ZM54.3303 13.3926L47.6115 1.71872C46.8557 0.458955 45.26 0.0390335 44.0002 0.794893L35.2658 5.74997H26.6994C25.6916 5.74997 24.6838 6.08591 23.844 6.58981L21.0725 8.35349C20.2326 8.85739 19.8127 9.69724 19.8127 10.6211V21.2031C19.8127 23.1348 21.2404 24.5625 23.1721 24.5625C25.0197 24.5625 26.5314 23.1348 26.5314 21.2031V13.8125H41.9846C44.5041 13.8125 46.6877 15.9961 46.6877 18.5156V20.9512L53.4064 17.0879C54.6662 16.332 55.0861 14.6523 54.3303 13.3926Z" fill="#FFC536"/>
</svg>
